<svg width="320" height="40" viewBox="0 0 320 40" fill="none" xmlns="http://www.w3.org/2000/svg">
<rect width="320" height="40" rx="5" fill="white"/>
<path d="M10.66 29C10.4547 29 10.2867 28.9347 10.156 28.804C10.0253 28.6733 9.96 28.5053 9.96 28.3V10.1C9.96 9.89467 10.0253 9.72667 10.156 9.596C10.2867 9.46533 10.4547 9.4 10.66 9.4H13.628C13.9453 9.4 14.1693 9.47467 14.3 9.624C14.4493 9.75467 14.5427 9.85733 14.58 9.932L21.412 20.712V10.1C21.412 9.89467 21.4773 9.72667 21.608 9.596C21.7387 9.46533 21.9067 9.4 22.112 9.4H25.472C25.6773 9.4 25.8453 9.46533 25.976 9.596C26.1067 9.72667 26.172 9.89467 26.172 10.1V28.3C26.172 28.4867 26.1067 28.6547 25.976 28.804C25.8453 28.9347 25.6773 29 25.472 29H22.476C22.1773 29 21.9533 28.9253 21.804 28.776C21.6733 28.6267 21.5893 28.524 21.552 28.468L14.72 18.108V28.3C14.72 28.5053 14.6547 28.6733 14.524 28.804C14.3933 28.9347 14.2253 29 14.02 29H10.66ZM28.965 29C28.8157 29 28.6757 28.944 28.545 28.832C28.433 28.7013 28.377 28.5613 28.377 28.412C28.377 28.3187 28.3863 28.2347 28.405 28.16L34.985 10.184C35.041 9.97867 35.153 9.80133 35.321 9.652C35.5077 9.484 35.7597 9.4 36.077 9.4H40.221C40.5383 9.4 40.781 9.484 40.949 9.652C41.1357 9.80133 41.257 9.97867 41.313 10.184L47.865 28.16C47.9023 28.2347 47.921 28.3187 47.921 28.412C47.921 28.5613 47.8557 28.7013 47.725 28.832C47.613 28.944 47.473 29 47.305 29H43.861C43.581 29 43.3663 28.9347 43.217 28.804C43.0863 28.6547 43.0023 28.524 42.965 28.412L41.873 25.556H34.397L33.333 28.412C33.2957 28.524 33.2117 28.6547 33.081 28.804C32.9503 28.9347 32.7263 29 32.409 29H28.965ZM35.545 21.524H40.753L38.121 14.132L35.545 21.524ZM50.828 29C50.6413 29 50.4733 28.9347 50.324 28.804C50.1933 28.6733 50.128 28.5053 50.128 28.3V10.1C50.128 9.89467 50.1933 9.72667 50.324 9.596C50.4733 9.46533 50.6413 9.4 50.828 9.4H53.852C54.1506 9.4 54.3746 9.484 54.524 9.652C54.692 9.80133 54.7946 9.92267 54.832 10.016L59.76 18.864L64.688 10.016C64.744 9.92267 64.8373 9.80133 64.968 9.652C65.1173 9.484 65.3506 9.4 65.668 9.4H68.664C68.8693 9.4 69.0373 9.46533 69.168 9.596C69.3173 9.72667 69.392 9.89467 69.392 10.1V28.3C69.392 28.5053 69.3173 28.6733 69.168 28.804C69.0373 28.9347 68.8693 29 68.664 29H65.332C65.1266 29 64.9493 28.9347 64.8 28.804C64.6693 28.6733 64.604 28.5053 64.604 28.3V17.8L61.44 23.652C61.3653 23.82 61.2533 23.9693 61.104 24.1C60.9546 24.2307 60.7493 24.296 60.488 24.296H59.032C58.7706 24.296 58.5653 24.2307 58.416 24.1C58.2666 23.9693 58.1453 23.82 58.052 23.652L54.888 17.8V28.3C54.888 28.5053 54.8226 28.6733 54.692 28.804C54.5613 28.9347 54.3933 29 54.188 29H50.828ZM72.1681 29C72.0188 29 71.8788 28.944 71.7481 28.832C71.6361 28.7013 71.5801 28.5613 71.5801 28.412C71.5801 28.3187 71.5895 28.2347 71.6081 28.16L78.1881 10.184C78.2441 9.97867 78.3561 9.80133 78.5241 9.652C78.7108 9.484 78.9628 9.4 79.2801 9.4H83.4241C83.7415 9.4 83.9841 9.484 84.1521 9.652C84.3388 9.80133 84.4601 9.97867 84.5161 10.184L91.0681 28.16C91.1055 28.2347 91.1241 28.3187 91.1241 28.412C91.1241 28.5613 91.0588 28.7013 90.9281 28.832C90.8161 28.944 90.6761 29 90.5081 29H87.0641C86.7841 29 86.5695 28.9347 86.4201 28.804C86.2895 28.6547 86.2055 28.524 86.1681 28.412L85.0761 25.556H77.6001L76.5361 28.412C76.4988 28.524 76.4148 28.6547 76.2841 28.804C76.1535 28.9347 75.9295 29 75.6121 29H72.1681ZM78.7481 21.524H83.9561L81.3241 14.132L78.7481 21.524ZM94.0311 29C93.8258 29 93.6578 28.9347 93.5271 28.804C93.3964 28.6733 93.3311 28.5053 93.3311 28.3V10.1C93.3311 9.89467 93.3964 9.72667 93.5271 9.596C93.6578 9.46533 93.8258 9.4 94.0311 9.4H96.9991C97.3164 9.4 97.5404 9.47467 97.6711 9.624C97.8204 9.75467 97.9138 9.85733 97.9511 9.932L104.783 20.712V10.1C104.783 9.89467 104.848 9.72667 104.979 9.596C105.11 9.46533 105.278 9.4 105.483 9.4H108.843C109.048 9.4 109.216 9.46533 109.347 9.596C109.478 9.72667 109.543 9.89467 109.543 10.1V28.3C109.543 28.4867 109.478 28.6547 109.347 28.804C109.216 28.9347 109.048 29 108.843 29H105.847C105.548 29 105.324 28.9253 105.175 28.776C105.044 28.6267 104.96 28.524 104.923 28.468L98.0911 18.108V28.3C98.0911 28.5053 98.0258 28.6733 97.8951 28.804C97.7644 28.9347 97.5964 29 97.3911 29H94.0311ZM121.548 29.28C119.775 29.28 118.244 28.9907 116.956 28.412C115.687 27.8147 114.697 26.956 113.988 25.836C113.297 24.6973 112.915 23.316 112.84 21.692C112.821 20.8893 112.812 20.04 112.812 19.144C112.812 18.2293 112.821 17.3613 112.84 16.54C112.915 14.9533 113.307 13.6093 114.016 12.508C114.725 11.4067 115.724 10.5667 117.012 9.988C118.3 9.40933 119.812 9.12 121.548 9.12C122.948 9.12 124.189 9.29733 125.272 9.652C126.355 9.988 127.26 10.4453 127.988 11.024C128.735 11.6027 129.295 12.2373 129.668 12.928C130.06 13.6187 130.265 14.3 130.284 14.972C130.303 15.14 130.247 15.28 130.116 15.392C130.004 15.504 129.864 15.56 129.696 15.56H125.608C125.403 15.56 125.244 15.532 125.132 15.476C125.039 15.4013 124.955 15.2987 124.88 15.168C124.749 14.888 124.553 14.5987 124.292 14.3C124.049 13.9827 123.704 13.712 123.256 13.488C122.827 13.264 122.257 13.152 121.548 13.152C120.484 13.152 119.644 13.432 119.028 13.992C118.431 14.552 118.104 15.448 118.048 16.68C117.992 18.2853 117.992 19.9093 118.048 21.552C118.104 22.8587 118.449 23.8013 119.084 24.38C119.719 24.9587 120.559 25.248 121.604 25.248C122.313 25.248 122.939 25.1267 123.48 24.884C124.04 24.6413 124.479 24.268 124.796 23.764C125.113 23.2413 125.272 22.5787 125.272 21.776V21.244H122.64C122.435 21.244 122.257 21.1787 122.108 21.048C121.977 20.8987 121.912 20.7213 121.912 20.516V18.444C121.912 18.2387 121.977 18.0707 122.108 17.94C122.257 17.7907 122.435 17.716 122.64 17.716H129.696C129.901 17.716 130.069 17.7907 130.2 17.94C130.331 18.0707 130.396 18.2387 130.396 18.444V21.636C130.396 23.2413 130.032 24.6133 129.304 25.752C128.576 26.8907 127.54 27.768 126.196 28.384C124.871 28.9813 123.321 29.28 121.548 29.28ZM132.051 29C131.902 29 131.762 28.944 131.631 28.832C131.519 28.7013 131.463 28.5613 131.463 28.412C131.463 28.3187 131.472 28.2347 131.491 28.16L138.071 10.184C138.127 9.97867 138.239 9.80133 138.407 9.652C138.594 9.484 138.846 9.4 139.163 9.4H143.307C143.624 9.4 143.867 9.484 144.035 9.652C144.222 9.80133 144.343 9.97867 144.399 10.184L150.951 28.16C150.988 28.2347 151.007 28.3187 151.007 28.412C151.007 28.5613 150.942 28.7013 150.811 28.832C150.699 28.944 150.559 29 150.391 29H146.947C146.667 29 146.452 28.9347 146.303 28.804C146.172 28.6547 146.088 28.524 146.051 28.412L144.959 25.556H137.483L136.419 28.412C136.382 28.524 136.298 28.6547 136.167 28.804C136.036 28.9347 135.812 29 135.495 29H132.051ZM138.631 21.524H143.839L141.207 14.132L138.631 21.524ZM153.914 29C153.709 29 153.541 28.9347 153.41 28.804C153.279 28.6733 153.214 28.5053 153.214 28.3V10.1C153.214 9.89467 153.279 9.72667 153.41 9.596C153.541 9.46533 153.709 9.4 153.914 9.4H156.882C157.199 9.4 157.423 9.47467 157.554 9.624C157.703 9.75467 157.797 9.85733 157.834 9.932L164.666 20.712V10.1C164.666 9.89467 164.731 9.72667 164.862 9.596C164.993 9.46533 165.161 9.4 165.366 9.4H168.726C168.931 9.4 169.099 9.46533 169.23 9.596C169.361 9.72667 169.426 9.89467 169.426 10.1V28.3C169.426 28.4867 169.361 28.6547 169.23 28.804C169.099 28.9347 168.931 29 168.726 29H165.73C165.431 29 165.207 28.9253 165.058 28.776C164.927 28.6267 164.843 28.524 164.806 28.468L157.974 18.108V28.3C157.974 28.5053 157.909 28.6733 157.778 28.804C157.647 28.9347 157.479 29 157.274 29H153.914ZM174.039 29C173.834 29 173.666 28.9347 173.535 28.804C173.404 28.6733 173.339 28.5053 173.339 28.3V10.1C173.339 9.89467 173.404 9.72667 173.535 9.596C173.666 9.46533 173.834 9.4 174.039 9.4H177.735C177.922 9.4 178.08 9.46533 178.211 9.596C178.36 9.72667 178.435 9.89467 178.435 10.1V24.772H186.891C187.096 24.772 187.264 24.8467 187.395 24.996C187.544 25.1267 187.619 25.2947 187.619 25.5V28.3C187.619 28.5053 187.544 28.6733 187.395 28.804C187.264 28.9347 187.096 29 186.891 29H174.039ZM190.746 29C190.541 29 190.373 28.9347 190.242 28.804C190.111 28.6733 190.046 28.5053 190.046 28.3V10.1C190.046 9.89467 190.111 9.72667 190.242 9.596C190.373 9.46533 190.541 9.4 190.746 9.4H194.498C194.703 9.4 194.871 9.46533 195.002 9.596C195.133 9.72667 195.198 9.89467 195.198 10.1V28.3C195.198 28.5053 195.133 28.6733 195.002 28.804C194.871 28.9347 194.703 29 194.498 29H190.746ZM199.824 29C199.619 29 199.451 28.9347 199.32 28.804C199.189 28.6733 199.124 28.5053 199.124 28.3V10.1C199.124 9.89467 199.189 9.72667 199.32 9.596C199.451 9.46533 199.619 9.4 199.824 9.4H203.352C203.557 9.4 203.725 9.46533 203.856 9.596C203.987 9.72667 204.052 9.89467 204.052 10.1V16.316L209.232 9.932C209.307 9.82 209.428 9.708 209.596 9.596C209.783 9.46533 210.025 9.4 210.324 9.4H214.356C214.524 9.4 214.664 9.46533 214.776 9.596C214.888 9.708 214.944 9.83867 214.944 9.988C214.944 10.1187 214.907 10.2307 214.832 10.324L208.14 18.78L215.364 28.076C215.439 28.1507 215.476 28.2627 215.476 28.412C215.476 28.5613 215.411 28.7013 215.28 28.832C215.168 28.944 215.037 29 214.888 29H210.716C210.38 29 210.119 28.9253 209.932 28.776C209.764 28.6267 209.652 28.5147 209.596 28.44L204.052 21.524V28.3C204.052 28.5053 203.987 28.6733 203.856 28.804C203.725 28.9347 203.557 29 203.352 29H199.824ZM218.363 29C218.158 29 217.99 28.9347 217.859 28.804C217.728 28.6733 217.663 28.5053 217.663 28.3V10.1C217.663 9.89467 217.728 9.72667 217.859 9.596C217.99 9.46533 218.158 9.4 218.363 9.4H222.059C222.246 9.4 222.404 9.46533 222.535 9.596C222.684 9.72667 222.759 9.89467 222.759 10.1V24.772H231.215C231.42 24.772 231.588 24.8467 231.719 24.996C231.868 25.1267 231.943 25.2947 231.943 25.5V28.3C231.943 28.5053 231.868 28.6733 231.719 28.804C231.588 28.9347 231.42 29 231.215 29H218.363ZM233.25 29C233.101 29 232.961 28.944 232.83 28.832C232.718 28.7013 232.662 28.5613 232.662 28.412C232.662 28.3187 232.671 28.2347 232.69 28.16L239.27 10.184C239.326 9.97867 239.438 9.80133 239.606 9.652C239.793 9.484 240.045 9.4 240.362 9.4H244.506C244.823 9.4 245.066 9.484 245.234 9.652C245.421 9.80133 245.542 9.97867 245.598 10.184L252.15 28.16C252.187 28.2347 252.206 28.3187 252.206 28.412C252.206 28.5613 252.141 28.7013 252.01 28.832C251.898 28.944 251.758 29 251.59 29H248.146C247.866 29 247.651 28.9347 247.502 28.804C247.371 28.6547 247.287 28.524 247.25 28.412L246.158 25.556H238.682L237.618 28.412C237.581 28.524 237.497 28.6547 237.366 28.804C237.235 28.9347 237.011 29 236.694 29H233.25ZM239.83 21.524H245.038L242.406 14.132L239.83 21.524ZM255.113 29C254.908 29 254.74 28.9347 254.609 28.804C254.478 28.6733 254.413 28.5053 254.413 28.3V10.1C254.413 9.89467 254.478 9.72667 254.609 9.596C254.74 9.46533 254.908 9.4 255.113 9.4H262.729C265.137 9.4 267.032 9.96 268.413 11.08C269.813 12.1813 270.513 13.7493 270.513 15.784C270.513 17.1093 270.186 18.2293 269.533 19.144C268.898 20.0587 268.058 20.7493 267.013 21.216L270.877 28.104C270.933 28.216 270.961 28.3187 270.961 28.412C270.961 28.5613 270.896 28.7013 270.765 28.832C270.653 28.944 270.513 29 270.345 29H266.649C266.294 29 266.033 28.916 265.865 28.748C265.697 28.5613 265.576 28.3933 265.501 28.244L262.309 22.084H259.425V28.3C259.425 28.5053 259.36 28.6733 259.229 28.804C259.098 28.9347 258.93 29 258.725 29H255.113ZM259.425 18.136H262.673C263.55 18.136 264.204 17.9213 264.633 17.492C265.081 17.0627 265.305 16.4747 265.305 15.728C265.305 15 265.09 14.412 264.661 13.964C264.25 13.516 263.588 13.292 262.673 13.292H259.425V18.136ZM273.689 29C273.483 29 273.306 28.9347 273.157 28.804C273.026 28.6733 272.961 28.5053 272.961 28.3V26.312C272.961 26.1813 272.998 25.9853 273.073 25.724C273.147 25.444 273.343 25.1827 273.66 24.94L276.573 22.084C278.066 20.9453 279.289 19.984 280.241 19.2C281.211 18.3973 281.93 17.688 282.397 17.072C282.863 16.456 283.097 15.8773 283.097 15.336C283.097 14.7013 282.929 14.1787 282.593 13.768C282.275 13.3387 281.715 13.124 280.913 13.124C280.371 13.124 279.914 13.2453 279.541 13.488C279.186 13.712 278.915 14.0107 278.729 14.384C278.542 14.7573 278.411 15.14 278.337 15.532C278.262 15.7747 278.131 15.9427 277.945 16.036C277.777 16.1293 277.59 16.176 277.385 16.176H273.885C273.717 16.176 273.577 16.12 273.465 16.008C273.353 15.896 273.297 15.756 273.297 15.588C273.315 14.692 273.502 13.852 273.857 13.068C274.23 12.284 274.743 11.5933 275.397 10.996C276.069 10.38 276.862 9.904 277.777 9.568C278.71 9.232 279.755 9.064 280.913 9.064C282.499 9.064 283.843 9.316 284.945 9.82C286.065 10.324 286.914 11.0333 287.493 11.948C288.071 12.844 288.361 13.8987 288.361 15.112C288.361 16.0267 288.155 16.8853 287.745 17.688C287.353 18.472 286.783 19.228 286.037 19.956C285.309 20.6653 284.441 21.4027 283.433 22.168L280.857 24.772H288.053C288.258 24.772 288.426 24.8373 288.557 24.968C288.706 25.0987 288.781 25.2667 288.781 25.472V28.3C288.781 28.5053 288.706 28.6733 288.557 28.804C288.426 28.9347 288.258 29 288.053 29H273.689ZM300.806 29C300.619 29 300.451 28.9347 300.302 28.804C300.171 28.6733 300.106 28.5053 300.106 28.3V25.136H291.398C291.211 25.136 291.043 25.0707 290.894 24.94C290.763 24.8093 290.698 24.6413 290.698 24.436V21.776C290.698 21.608 290.726 21.4587 290.782 21.328C290.857 21.1787 290.931 21.0387 291.006 20.908L299.154 9.876C299.397 9.55867 299.742 9.4 300.19 9.4H304.25C304.455 9.4 304.623 9.46533 304.754 9.596C304.903 9.72667 304.978 9.89467 304.978 10.1V20.964H307.442C307.666 20.964 307.843 21.0387 307.974 21.188C308.105 21.3187 308.17 21.4773 308.17 21.664V24.436C308.17 24.6413 308.095 24.8093 307.946 24.94C307.815 25.0707 307.657 25.136 307.47 25.136H304.978V28.3C304.978 28.5053 304.903 28.6733 304.754 28.804C304.623 28.9347 304.455 29 304.25 29H300.806ZM295.514 21.16H300.218V14.552L295.514 21.16Z" fill="#295091"/>
</svg>
